<svg xmlns="http://www.w3.org/2000/svg" enable-background="new 0 0 256 256" viewBox="0 0 256 256"><circle cx="128" cy="128" r="118.218" fill="#3193F3"/><path fill="#35B1FC" d="M135.5,245.98c-2.48,0.16-4.98,0.24-7.5,0.24C62.71,246.22,9.78,193.29,9.78,128
							C9.78,59.648,67.59,5.639,135.5,10.02C73.7,13.88,24.78,65.23,24.78,128S73.7,242.12,135.5,245.98z"/><path fill="#307FED" d="M246.22,128c0,65.29-52.93,118.22-118.22,118.22c-2.52,0-5.02-0.08-7.5-0.24
							c61.8-3.86,110.72-55.21,110.72-117.98S182.3,13.88,120.5,10.02C188.434,5.638,246.22,59.67,246.22,128z"/><path fill="#FFE2E2" d="M130.862,91.523H54.753v53.673c0,11.914,9.659,21.573,21.573,21.573h76.109v-53.673
				C152.435,101.181,142.776,91.523,130.862,91.523z"/><polygon fill="#FFE2E2" points="166.501 114.879 166.501 127.995 166.501 141.112 201.247 167.114 201.247 127.995 201.247 88.877"/><g><path fill="#5F266D" d="M128,5.782C60.608,5.782,5.782,60.609,5.782,128c0,67.391,54.826,122.218,122.218,122.218
			S250.218,195.391,250.218,128C250.218,60.609,195.392,5.782,128,5.782z M128,242.218C65.021,242.218,13.782,190.98,13.782,128
			C13.782,65.02,65.021,13.782,128,13.782S242.218,65.02,242.218,128C242.218,190.98,190.979,242.218,128,242.218z"/><path fill="#5F266D" d="M103.759 39.854c3.073-.78 6.269-1.418 9.496-1.898 2.186-.325 3.693-2.359 3.368-4.544-.324-2.185-2.354-3.692-4.544-3.369-3.493.519-6.954 1.211-10.287 2.057-2.142.543-3.438 2.719-2.894 4.861C99.442 39.107 101.625 40.397 103.759 39.854zM90.206 44.481c2.024-.884 2.949-3.242 2.065-5.267-.884-2.024-3.241-2.949-5.267-2.065C54.331 51.415 42.778 78.655 42.303 79.807c-.842 2.039.128 4.371 2.165 5.217 2.036.845 4.376-.121 5.227-2.157C49.8 82.614 60.605 57.405 90.206 44.481zM130.861 87.523H54.753c-2.209 0-4 1.791-4 4v53.673c0 14.101 11.472 25.573 25.572 25.573h76.109c2.209 0 4-1.791 4-4v-53.673C156.435 98.995 144.963 87.523 130.861 87.523zM148.435 162.769H76.325c-9.689 0-17.572-7.883-17.572-17.573V95.523h72.108c9.689 0 17.573 7.883 17.573 17.573V162.769zM198.851 85.674l-34.746 26.002c-1.01.755-1.604 1.942-1.604 3.203v26.232c0 1.261.594 2.447 1.604 3.203l34.746 26.002c2.631 1.969 6.396.088 6.396-3.203V88.877C205.247 85.58 201.474 83.708 198.851 85.674zM197.247 159.125l-26.746-20.016v-22.228l26.746-20.016V159.125z"/></g></svg>